<mxfile host="app.diagrams.net" agent="Mozilla/5.0 (Macintosh; Intel Mac OS X 10_15_7) AppleWebKit/537.36 (KHTML, like Gecko) Chrome/131.0.0.0 Safari/537.36" version="25.0.3">
  <diagram name="Trang-1" id="CGZ0g6OEc4XdjnEhHqfj">
    <mxGraphModel dx="794" dy="589" grid="1" gridSize="10" guides="1" tooltips="1" connect="1" arrows="1" fold="1" page="1" pageScale="1" pageWidth="827" pageHeight="1169" math="0" shadow="0">
      <root>
        <mxCell id="0" />
        <mxCell id="1" parent="0" />
        <mxCell id="NB-Zb7YQc9W9cPplQE56-1" value="" style="ellipse;whiteSpace=wrap;html=1;" parent="1" vertex="1">
          <mxGeometry x="60" y="10" width="120" height="80" as="geometry" />
        </mxCell>
        <mxCell id="NB-Zb7YQc9W9cPplQE56-7" style="edgeStyle=orthogonalEdgeStyle;rounded=0;orthogonalLoop=1;jettySize=auto;html=1;entryX=0.5;entryY=0;entryDx=0;entryDy=0;exitX=0.5;exitY=1;exitDx=0;exitDy=0;" parent="1" source="NB-Zb7YQc9W9cPplQE56-1" target="NB-Zb7YQc9W9cPplQE56-6" edge="1">
          <mxGeometry relative="1" as="geometry">
            <mxPoint x="120" y="100" as="sourcePoint" />
          </mxGeometry>
        </mxCell>
        <mxCell id="NB-Zb7YQc9W9cPplQE56-5" value="&lt;font style=&quot;vertical-align: inherit;&quot;&gt;&lt;font style=&quot;vertical-align: inherit;&quot;&gt;Bắt đầu&lt;/font&gt;&lt;/font&gt;" style="text;html=1;align=center;verticalAlign=middle;whiteSpace=wrap;rounded=0;" parent="1" vertex="1">
          <mxGeometry x="90" y="35" width="60" height="30" as="geometry" />
        </mxCell>
        <mxCell id="NB-Zb7YQc9W9cPplQE56-6" value="" style="shape=parallelogram;perimeter=parallelogramPerimeter;whiteSpace=wrap;html=1;fixedSize=1;" parent="1" vertex="1">
          <mxGeometry x="60" y="150" width="120" height="60" as="geometry" />
        </mxCell>
        <mxCell id="NB-Zb7YQc9W9cPplQE56-10" style="edgeStyle=orthogonalEdgeStyle;rounded=0;orthogonalLoop=1;jettySize=auto;html=1;exitX=1;exitY=0.5;exitDx=0;exitDy=0;" parent="1" source="NB-Zb7YQc9W9cPplQE56-6" edge="1">
          <mxGeometry relative="1" as="geometry">
            <mxPoint x="250" y="185" as="targetPoint" />
            <mxPoint x="190" y="185" as="sourcePoint" />
          </mxGeometry>
        </mxCell>
        <mxCell id="NB-Zb7YQc9W9cPplQE56-8" value="&lt;font style=&quot;vertical-align: inherit;&quot;&gt;&lt;font style=&quot;vertical-align: inherit;&quot;&gt;Nhập vào giá trị a và b&lt;/font&gt;&lt;/font&gt;" style="text;html=1;align=center;verticalAlign=middle;whiteSpace=wrap;rounded=0;" parent="1" vertex="1">
          <mxGeometry x="75" y="170" width="90" height="30" as="geometry" />
        </mxCell>
        <mxCell id="NB-Zb7YQc9W9cPplQE56-15" style="edgeStyle=orthogonalEdgeStyle;rounded=0;orthogonalLoop=1;jettySize=auto;html=1;" parent="1" source="NB-Zb7YQc9W9cPplQE56-9" edge="1">
          <mxGeometry relative="1" as="geometry">
            <mxPoint x="460" y="80" as="targetPoint" />
            <Array as="points">
              <mxPoint x="290" y="100" />
              <mxPoint x="291" y="100" />
            </Array>
          </mxGeometry>
        </mxCell>
        <mxCell id="NB-Zb7YQc9W9cPplQE56-17" style="edgeStyle=orthogonalEdgeStyle;rounded=0;orthogonalLoop=1;jettySize=auto;html=1;exitX=0.5;exitY=1;exitDx=0;exitDy=0;" parent="1" source="NB-Zb7YQc9W9cPplQE56-9" edge="1">
          <mxGeometry relative="1" as="geometry">
            <mxPoint x="450" y="320" as="targetPoint" />
            <Array as="points">
              <mxPoint x="290" y="273" />
              <mxPoint x="291" y="273" />
            </Array>
          </mxGeometry>
        </mxCell>
        <mxCell id="NB-Zb7YQc9W9cPplQE56-9" value="" style="rhombus;whiteSpace=wrap;html=1;" parent="1" vertex="1">
          <mxGeometry x="250" y="145" width="80" height="80" as="geometry" />
        </mxCell>
        <mxCell id="NB-Zb7YQc9W9cPplQE56-19" value="&lt;font style=&quot;vertical-align: inherit;&quot;&gt;&lt;font style=&quot;vertical-align: inherit;&quot;&gt;KIểm tra a lớn hơn b&lt;/font&gt;&lt;/font&gt;" style="text;html=1;align=center;verticalAlign=middle;whiteSpace=wrap;rounded=0;" parent="1" vertex="1">
          <mxGeometry x="260" y="170" width="60" height="30" as="geometry" />
        </mxCell>
        <mxCell id="NB-Zb7YQc9W9cPplQE56-20" value="&lt;font style=&quot;vertical-align: inherit;&quot;&gt;&lt;font style=&quot;vertical-align: inherit;&quot;&gt;Đúng&lt;/font&gt;&lt;/font&gt;" style="text;html=1;align=center;verticalAlign=middle;whiteSpace=wrap;rounded=0;" parent="1" vertex="1">
          <mxGeometry x="340" y="50" width="60" height="30" as="geometry" />
        </mxCell>
        <mxCell id="NB-Zb7YQc9W9cPplQE56-21" value="&lt;font style=&quot;vertical-align: inherit;&quot;&gt;&lt;font style=&quot;vertical-align: inherit;&quot;&gt;Sai&lt;/font&gt;&lt;/font&gt;" style="text;html=1;align=center;verticalAlign=middle;whiteSpace=wrap;rounded=0;" parent="1" vertex="1">
          <mxGeometry x="340" y="330" width="60" height="30" as="geometry" />
        </mxCell>
        <mxCell id="NB-Zb7YQc9W9cPplQE56-31" style="edgeStyle=orthogonalEdgeStyle;rounded=0;orthogonalLoop=1;jettySize=auto;html=1;entryX=0.417;entryY=0;entryDx=0;entryDy=0;entryPerimeter=0;" parent="1" target="NB-Zb7YQc9W9cPplQE56-29" edge="1">
          <mxGeometry relative="1" as="geometry">
            <mxPoint x="570" y="80" as="sourcePoint" />
            <mxPoint x="720" y="120" as="targetPoint" />
            <Array as="points">
              <mxPoint x="570" y="81" />
              <mxPoint x="720" y="81" />
            </Array>
          </mxGeometry>
        </mxCell>
        <mxCell id="NB-Zb7YQc9W9cPplQE56-29" value="" style="ellipse;whiteSpace=wrap;html=1;" parent="1" vertex="1">
          <mxGeometry x="670" y="140" width="120" height="80" as="geometry" />
        </mxCell>
        <mxCell id="NB-Zb7YQc9W9cPplQE56-32" value="&lt;font style=&quot;vertical-align: inherit;&quot;&gt;&lt;font style=&quot;vertical-align: inherit;&quot;&gt;End&lt;/font&gt;&lt;/font&gt;" style="text;html=1;align=center;verticalAlign=middle;whiteSpace=wrap;rounded=0;" parent="1" vertex="1">
          <mxGeometry x="700" y="170" width="60" height="30" as="geometry" />
        </mxCell>
        <mxCell id="oq7V5_jFBeNq8zm30EMO-9" style="edgeStyle=orthogonalEdgeStyle;rounded=0;orthogonalLoop=1;jettySize=auto;html=1;" edge="1" parent="1" source="oq7V5_jFBeNq8zm30EMO-3" target="NB-Zb7YQc9W9cPplQE56-29">
          <mxGeometry relative="1" as="geometry">
            <mxPoint x="740" y="320" as="targetPoint" />
          </mxGeometry>
        </mxCell>
        <mxCell id="oq7V5_jFBeNq8zm30EMO-3" value="" style="shape=parallelogram;perimeter=parallelogramPerimeter;whiteSpace=wrap;html=1;fixedSize=1;" vertex="1" parent="1">
          <mxGeometry x="450" y="290" width="120" height="60" as="geometry" />
        </mxCell>
        <mxCell id="NB-Zb7YQc9W9cPplQE56-26" value="&lt;font style=&quot;vertical-align: inherit;&quot;&gt;&lt;font style=&quot;vertical-align: inherit;&quot;&gt;a là số nhỏ hơn&amp;nbsp;&lt;/font&gt;&lt;/font&gt;" style="text;html=1;align=center;verticalAlign=middle;whiteSpace=wrap;rounded=0;" parent="1" vertex="1">
          <mxGeometry x="470" y="305" width="60" height="30" as="geometry" />
        </mxCell>
        <mxCell id="oq7V5_jFBeNq8zm30EMO-4" value="" style="shape=parallelogram;perimeter=parallelogramPerimeter;whiteSpace=wrap;html=1;fixedSize=1;" vertex="1" parent="1">
          <mxGeometry x="460" y="50" width="120" height="60" as="geometry" />
        </mxCell>
        <mxCell id="NB-Zb7YQc9W9cPplQE56-24" value="&lt;font style=&quot;vertical-align: inherit;&quot;&gt;&lt;font style=&quot;vertical-align: inherit;&quot;&gt;b là số nhỏ hơn&lt;/font&gt;&lt;/font&gt;" style="text;html=1;align=center;verticalAlign=middle;whiteSpace=wrap;rounded=0;" parent="1" vertex="1">
          <mxGeometry x="480" y="65" width="60" height="30" as="geometry" />
        </mxCell>
      </root>
    </mxGraphModel>
  </diagram>
</mxfile>
